<?xml version="1.0" standalone="no"?>
<!DOCTYPE svg PUBLIC "-//W3C//DTD SVG 20010904//EN"
 "http://www.w3.org/TR/2001/REC-SVG-20010904/DTD/svg10.dtd">
<svg version="1.0" xmlns="http://www.w3.org/2000/svg"
 width="260.000000pt" height="260.000000pt" viewBox="0 0 260.000000 260.000000"
 preserveAspectRatio="xMidYMid meet">
<metadata>
Created by potrace 1.11, written by Peter Selinger 2001-2013
</metadata>
<g transform="translate(0.000000,260.000000) scale(0.100000,-0.100000)"
fill="#000000" stroke="none">
<path d="M271 2193 c-25 -49 -42 -150 -45 -285 -2 -82 -5 -92 -22 -93 -23 -2
-136 -18 -146 -21 -5 -1 -15 -2 -23 -3 -12 -1 -15 -20 -15 -105 l0 -103 48 8
c26 4 65 10 87 14 22 3 50 8 62 10 24 5 27 -2 37 -70 14 -104 70 -263 121
-345 60 -97 176 -219 363 -382 74 -65 256 -200 362 -270 145 -96 251 -149 306
-156 40 -4 44 -2 54 23 15 39 7 83 -60 320 -59 208 -87 348 -84 415 3 70 32
220 59 310 7 25 23 78 35 119 l22 73 52 -7 c28 -3 52 -8 54 -10 2 -2 -17 -75
-42 -162 -26 -87 -48 -167 -51 -178 -2 -11 -13 -57 -24 -103 -35 -152 -19
-262 65 -437 77 -162 211 -271 421 -341 170 -57 405 -20 529 82 78 63 149 239
139 342 -7 64 -29 89 -124 133 -47 23 -113 54 -146 70 -93 44 -151 105 -233
244 -41 69 -146 295 -140 300 2 1 48 -3 103 -11 55 -7 124 -16 154 -20 30 -3
61 -7 69 -8 10 -2 33 -56 67 -154 28 -83 53 -153 55 -155 19 -13 112 -73 150
-96 23 -13 23 -13 16 35 -3 27 -8 60 -11 74 -2 14 -18 108 -35 210 -16 102
-32 195 -35 207 -4 17 -15 22 -57 28 -102 13 -124 16 -178 25 -30 5 -75 11
-100 15 -113 14 -242 34 -245 37 -1 1 -5 19 -8 38 -8 60 -56 240 -73 271 -40
79 -76 41 -164 -175 l-37 -91 -54 4 c-30 1 -56 5 -58 7 -2 2 7 40 19 85 33
124 34 129 35 194 0 55 -2 60 -22 63 -29 4 -101 -66 -257 -250 -26 -32 -51
-56 -55 -54 -3 2 -35 7 -71 11 -36 4 -67 8 -70 10 -10 6 -135 19 -180 19 -44
0 -71 -3 -215 -23 -115 -17 -103 -25 -199 119 -130 196 -179 241 -205 193z
m743 -488 l48 -8 -28 -24 c-53 -44 -129 -83 -162 -83 -18 0 -47 7 -65 16 -32
16 -97 73 -97 84 0 4 15 8 33 9 17 1 48 5 67 10 39 9 128 7 204 -4z"/>
</g>
</svg>
